<svg width="877" height="607" viewBox="0 0 877 607" fill="none" xmlns="http://www.w3.org/2000/svg">
<g clip-path="url(#clip0_1_2)">
<path fill-rule="evenodd" clip-rule="evenodd" d="M8 504V520.741L222.995 535.373L438 550L652.995 535.373L868 520.741V504H8Z" fill="#00411F"/>
<path fill-rule="evenodd" clip-rule="evenodd" d="M441.63 312.35L438.02 338.48L434.41 312.35C433.39 314.94 432.18 317.38 430.78 319.77L430.35 320.48C430.39 318.22 430.53 315.94 430.76 313.64C428.51 318.01 426.97 322.34 426.01 326.62C424.32 328.67 422.45 330.59 420.37 332.4C417.59 322.2 415.61 311.37 414.92 299.53C411.55 304.43 410.42 309.46 410.71 314.59C407.9 305.77 402.6 298.2 394.44 292.1C402.79 308.98 405.88 325.52 405.4 341.81C404.12 342.41 402.78 342.99 401.39 343.56L389.76 303.77C388.34 318.68 388.9 333.12 392.35 346.86L391.21 347.23C384 335.22 379.58 321.01 380.96 302.24C373.05 320.47 371.63 336.8 376.53 351.28L375.88 351.44C370.85 341.77 366.93 330.93 365.6 317.37C359.27 328.69 355.32 339.78 356.15 350.42C355.64 338.14 350.88 326.44 342.14 315.26C345.48 327.65 346.77 339.87 344.33 351.8C335.02 338.11 331.71 321.33 333.44 301.94C327.16 312.56 322.26 323.49 329.42 337.06C326.02 334.31 322.04 332.1 317.1 330.78C317.23 331.92 317.3 333.07 317.3 334.25C317.3 334.41 317.3 334.56 317.3 334.72C324.03 342.31 328.99 350.6 331.43 359.88L330.04 360.1C326.96 353.93 322.82 348.7 318.29 344.1C317.34 347.98 319.32 351.15 317.7 356.12C316.53 353.89 315.52 351.59 314.65 349.24C309.96 359.54 299.59 366.69 287.53 366.69C282.07 366.69 276.95 365.22 272.55 362.66C272.28 363.91 271.98 365.15 271.66 366.38L270.43 366.4C270.38 364.63 270.28 362.86 270.13 361.09C266.33 358.35 263.2 354.73 261.03 350.53L260.89 366.22C259.42 366.14 257.99 366.03 256.61 365.9C251.73 350.45 250.2 333.64 253.62 314.82C247.47 323.23 244.45 332.14 244.14 341.46C243.03 336.47 240.59 332.02 236.04 328.39C238.65 340.22 239.67 351.47 239.72 362.35C238.1 361.76 236.56 361.1 235.08 360.38C231.56 349.63 225.78 339.46 216.81 330.1C219.39 336.63 221.4 343.2 222.82 349.8C222.66 350.12 222.5 350.45 222.34 350.77C221.75 350.12 221.18 349.44 220.63 348.74C220.67 348.33 220.7 347.92 220.74 347.51C220.6 347.79 220.46 348.07 220.32 348.34C216.02 342.79 212.72 335.75 210.01 326.14L214.93 361.74C213.53 363.33 212.01 364.84 210.35 366.27C207.57 356.07 205.59 345.24 204.9 333.4C201.54 338.3 200.4 343.33 200.69 348.46C197.88 339.64 192.58 332.07 184.42 325.97C192.77 342.85 195.86 359.39 195.38 375.68C194.1 376.28 192.76 376.86 191.37 377.43L179.74 337.64C178.32 352.55 178.88 366.99 182.33 380.73L181.19 381.1C173.98 369.09 169.56 354.88 170.94 336.12C163.03 354.35 161.61 370.68 166.51 385.16L165.86 385.32C160.82 375.65 156.91 364.81 155.58 351.25C149.25 362.57 145.3 373.66 146.13 384.3C145.62 372.02 140.86 360.32 132.12 349.14C135.46 361.53 136.75 373.75 134.31 385.68C125 371.99 121.69 355.21 123.42 335.82C117.14 346.44 112.24 357.37 119.4 370.93C115.04 367.4 109.73 364.76 102.67 363.75C111.74 372.64 118.44 382.46 121.4 393.73L120.01 393.95C116.93 387.78 112.79 382.55 108.26 377.95C107.31 381.83 109.29 385 107.67 389.97C102.11 379.33 100.03 367.23 99.88 354.33C94.53 367.78 93.14 380.48 95.98 392.37C93.9 381.93 87.12 372.57 78 363.74C80.38 377.05 79.59 388.59 77.42 399.37L76.72 399.43C77.43 384.11 71.65 369 59.21 354.13C65.58 371.58 65.22 386.51 61.61 400.23L60.38 400.25C59.94 386.07 56.58 372.13 51.21 358.36L50.85 400.07C49.38 399.99 47.95 399.88 46.57 399.75C41.69 384.3 40.16 367.49 43.59 348.67C37.44 357.08 34.42 365.99 34.11 375.31C33 370.32 30.56 365.87 26.01 362.24C28.62 374.07 29.64 385.32 29.69 396.2C28.07 395.61 26.53 394.95 25.06 394.23C21.54 383.48 15.76 373.31 6.78999 363.95C9.61999 371.11 11.76 378.32 13.2 385.57C7.44999 379.54 3.27999 371.66 -0.0100098 360L7.51999 414.48V415.04H868.41L876.02 360C872.73 371.66 868.56 379.54 862.81 385.57C864.25 378.32 866.39 371.11 869.22 363.95C860.25 373.31 854.47 383.48 850.95 394.23C849.48 394.95 847.94 395.61 846.32 396.2C846.37 385.32 847.39 374.07 850 362.24C845.45 365.87 843.01 370.32 841.9 375.31C841.59 365.98 838.57 357.08 832.42 348.67C835.84 367.48 834.32 384.3 829.44 399.75C828.06 399.88 826.63 399.99 825.16 400.07L824.8 358.36C819.43 372.13 816.07 386.07 815.63 400.25L814.4 400.23C810.79 386.51 810.43 371.57 816.8 354.13C804.36 369.01 798.59 384.11 799.29 399.43L798.59 399.37C796.42 388.59 795.64 377.05 798.01 363.74C788.9 372.57 782.11 381.94 780.03 392.37C782.87 380.47 781.48 367.77 776.13 354.33C775.98 367.23 773.91 379.33 768.34 389.97C766.73 385 768.7 381.83 767.75 377.95C763.23 382.55 759.08 387.78 756 393.95L754.61 393.73C757.57 382.45 764.27 372.63 773.34 363.75C766.28 364.77 760.97 367.4 756.61 370.93C763.78 357.37 758.87 346.44 752.59 335.81C754.32 355.2 751 371.98 741.7 385.67C739.26 373.74 740.54 361.51 743.89 349.13C735.15 360.31 730.38 372.01 729.88 384.29C730.71 373.65 726.76 362.56 720.43 351.24C719.1 364.8 715.18 375.65 710.15 385.31L709.5 385.15C714.4 370.67 712.98 354.34 705.07 336.11C706.45 354.87 702.03 369.08 694.82 381.09L693.68 380.72C697.13 366.98 697.69 352.54 696.27 337.63L684.64 377.42C683.25 376.85 681.92 376.27 680.63 375.67C680.15 359.38 683.24 342.85 691.59 325.96C683.43 332.07 678.13 339.63 675.32 348.45C675.61 343.33 674.47 338.3 671.11 333.39C670.42 345.23 668.45 356.06 665.66 366.26C664 364.82 662.48 363.31 661.08 361.73L666 326.14C663.29 335.74 659.99 342.79 655.69 348.34C655.55 348.06 655.41 347.78 655.27 347.51C655.31 347.92 655.35 348.33 655.38 348.74C654.83 349.44 654.26 350.12 653.67 350.77C653.51 350.45 653.34 350.13 653.19 349.8C654.61 343.19 656.62 336.63 659.2 330.1C650.23 339.46 644.45 349.63 640.93 360.38C639.46 361.1 637.92 361.76 636.29 362.35C636.34 351.47 637.36 340.22 639.97 328.39C635.42 332.02 632.98 336.47 631.87 341.46C631.56 332.13 628.54 323.23 622.39 314.82C625.81 333.63 624.28 350.45 619.41 365.9C618.03 366.03 616.6 366.14 615.13 366.22L614.98 348.9C612.97 353.47 609.85 357.43 605.95 360.46C605.78 362.44 605.66 364.42 605.6 366.4L604.37 366.38C604.01 365.01 603.68 363.63 603.39 362.24C598.84 365.06 593.47 366.7 587.71 366.7C576.02 366.7 565.91 359.97 561.03 350.17C560.24 352.2 559.34 354.19 558.33 356.13C556.72 351.16 558.69 347.99 557.74 344.11C553.22 348.71 549.07 353.94 545.99 360.11L544.6 359.89C546.94 350.97 551.62 342.97 557.96 335.61V335.59C557.94 335.15 557.93 334.71 557.93 334.26C557.93 333.17 557.99 332.09 558.11 331.02C553.54 332.36 549.82 334.48 546.61 337.08C553.78 323.52 548.87 312.59 542.59 301.96C544.32 321.35 541 338.13 531.7 351.82C529.26 339.89 530.54 327.66 533.89 315.28C525.15 326.46 520.38 338.16 519.88 350.44C520.71 339.8 516.76 328.71 510.43 317.39C509.1 330.95 505.18 341.8 500.15 351.46L499.5 351.3C504.4 336.82 502.98 320.49 495.07 302.26C496.45 321.02 492.03 335.23 484.82 347.25L483.68 346.88C487.13 333.14 487.69 318.7 486.27 303.79L474.64 343.58C473.25 343.01 471.92 342.43 470.63 341.83C470.15 325.55 473.24 309.01 481.59 292.12C473.43 298.23 468.13 305.79 465.32 314.61C465.61 309.49 464.47 304.46 461.11 299.55C460.42 311.39 458.45 322.22 455.66 332.42C453.57 330.61 451.71 328.69 450.02 326.64C449.06 322.35 447.52 318.03 445.27 313.66C445.5 315.96 445.64 318.25 445.68 320.5L445.25 319.79C443.84 317.41 442.63 314.97 441.62 312.37L441.63 312.35Z" fill="#00411F"/>
<path fill-rule="evenodd" clip-rule="evenodd" d="M614.42 273.09V292.64L610.24 296.51C624.38 304.42 633.95 319.52 633.95 336.88C633.95 362.4 613.25 383.09 587.73 383.09C568.29 383.09 551.65 371.08 544.83 354.08L544.59 355.76L327.44 360.16C319.42 373.88 304.54 383.09 287.51 383.09C261.99 383.09 241.3 362.4 241.3 336.88C241.3 316.62 254.34 299.4 272.5 293.16L271.79 292.24L271.38 249.48L125.61 81.3L115.83 81.71L63.2 29.24L78.05 2.38L135.78 57.28L137.41 68.27L275.86 215.26L281.96 209.56L305.58 210.38L305.99 234.81L325.13 234.4L323.5 269.83L380.51 269.42L380.4 256.7L367.37 244.69H378.88L365.04 234.41L364.22 187.58L387.43 187.17L387.84 178.41L410.03 177.8L409.42 169.45H434.05V179.43L452.17 179.02L451.96 185.73L475.58 186.34L479.35 191.74L529.74 212.81L529.63 239.08L514.05 238.37L513.75 245.08L520.77 254.24L531.66 254.65L535.63 247.63L564.13 247.12L565.55 272.77L575.53 283.76L590.7 284.07L590.5 273.08H614.41L614.42 273.09ZM588.07 327.19C582.86 327.19 578.64 331.41 578.64 336.62C578.64 341.83 582.86 346.04 588.07 346.04C593.28 346.04 597.49 341.82 597.49 336.62C597.49 331.42 593.27 327.19 588.07 327.19ZM287.25 327.19C282.05 327.19 277.83 331.41 277.83 336.62C277.83 341.83 282.05 346.04 287.25 346.04C292.45 346.04 296.67 341.82 296.67 336.62C296.67 331.42 292.46 327.19 287.25 327.19ZM287.5 307.09C271.05 307.09 257.72 320.42 257.72 336.87C257.72 353.32 271.05 366.65 287.5 366.65C303.95 366.65 317.28 353.32 317.28 336.87C317.28 320.42 303.95 307.09 287.5 307.09ZM587.72 307.09C571.28 307.09 557.94 320.42 557.94 336.87C557.94 353.32 571.28 366.65 587.72 366.65C604.16 366.65 617.5 353.32 617.5 336.87C617.5 320.42 604.17 307.09 587.72 307.09Z" fill="#00411F"/>
<path d="M22.6 479.165V438.735C22.6 437.825 24.7883 437.37 29.165 437.37C33.585 437.37 35.795 437.825 35.795 438.735V470.585H45.805C46.585 470.585 47.1267 471.603 47.43 473.64C47.56 474.637 47.625 475.655 47.625 476.695C47.625 477.735 47.56 478.797 47.43 479.88C47.0833 481.96 46.52 483 45.74 483H25.72C24.7667 483 24.0083 482.61 23.445 481.83C22.8817 481.05 22.6 480.162 22.6 479.165ZM124.947 483.13C121.177 483.13 119.14 482.523 118.837 481.31L116.692 472.925H106.357L104.472 480.985C104.212 482.328 102.132 483 98.2321 483C96.1521 483 94.6137 482.892 93.6171 482.675C92.6204 482.415 92.1221 482.22 92.1221 482.09L103.627 438.085C103.627 437.738 106.595 437.565 112.532 437.565C118.469 437.565 121.437 437.738 121.437 438.085L132.682 482.155C132.682 482.458 131.685 482.697 129.692 482.87C127.699 483.043 126.117 483.13 124.947 483.13ZM107.982 464.67H114.807L111.882 451.215H111.492L107.982 464.67ZM215.51 481.57C215.51 482.48 213.473 482.935 209.4 482.935C205.327 482.935 203.117 482.61 202.77 481.96L191.915 461.68V481.895C191.915 482.675 189.9 483.065 185.87 483.065C181.883 483.065 179.89 482.675 179.89 481.895V438.41C179.89 437.76 181.602 437.435 185.025 437.435C186.368 437.435 187.928 437.565 189.705 437.825C191.525 438.042 192.63 438.475 193.02 439.125L203.42 459.145V438.735C203.42 437.912 205.435 437.5 209.465 437.5C213.495 437.5 215.51 437.912 215.51 438.735V481.57ZM264.938 480.01V441.01C264.938 439.927 265.198 439.082 265.718 438.475C266.282 437.825 266.997 437.5 267.863 437.5H278.718C285.608 437.5 290.83 439.233 294.383 442.7C297.98 446.167 299.778 451.627 299.778 459.08C299.778 475.027 292.975 483 279.368 483H268.253C266.043 483 264.938 482.003 264.938 480.01ZM277.418 449.85V469.285C277.418 470.195 277.483 470.78 277.613 471.04C277.743 471.257 278.133 471.365 278.783 471.365C281.167 471.365 282.965 470.477 284.178 468.7C285.435 466.923 286.063 463.977 286.063 459.86C286.063 455.7 285.413 452.992 284.113 451.735C282.857 450.478 280.842 449.85 278.068 449.85H277.418ZM349.582 467.14C350.405 467.79 351.814 468.678 353.807 469.805C355.844 470.932 357.772 471.495 359.592 471.495C361.455 471.495 362.387 470.78 362.387 469.35C362.387 468.7 362.127 468.137 361.607 467.66C361.087 467.14 360.134 466.555 358.747 465.905C357.36 465.255 356.32 464.757 355.627 464.41C354.934 464.02 354.002 463.413 352.832 462.59C351.705 461.723 350.839 460.835 350.232 459.925C348.499 457.455 347.632 454.313 347.632 450.5C347.632 446.687 349.04 443.48 351.857 440.88C354.717 438.237 358.444 436.915 363.037 436.915C366.157 436.915 369.039 437.262 371.682 437.955C374.325 438.605 375.69 439.472 375.777 440.555C375.777 440.685 375.777 440.815 375.777 440.945C375.777 442.462 375.3 444.39 374.347 446.73C373.394 449.027 372.722 450.305 372.332 450.565C369.559 449.135 367.067 448.42 364.857 448.42C362.69 448.42 361.607 449.2 361.607 450.76C361.607 451.713 362.409 452.558 364.012 453.295C364.359 453.468 364.857 453.707 365.507 454.01C366.157 454.313 366.894 454.682 367.717 455.115C368.584 455.505 369.494 456.025 370.447 456.675C371.444 457.282 372.505 458.105 373.632 459.145C375.929 461.312 377.077 464.172 377.077 467.725C377.077 472.362 375.799 476.153 373.242 479.1C370.685 482.047 366.742 483.563 361.412 483.65C358.812 483.65 356.45 483.433 354.327 483C352.247 482.567 350.427 481.722 348.867 480.465C347.307 479.208 346.527 477.692 346.527 475.915C346.527 474.138 346.852 472.383 347.502 470.65C348.152 468.873 348.845 467.703 349.582 467.14ZM443.913 436.915C447.077 436.915 449.85 437.37 452.233 438.28C454.66 439.147 455.873 440.338 455.873 441.855C455.873 443.372 455.288 445.257 454.118 447.51C452.992 449.72 452.038 450.825 451.258 450.825C451.042 450.825 450.782 450.717 450.478 450.5C450.218 450.24 449.568 449.98 448.528 449.72C447.532 449.417 446.665 449.265 445.928 449.265C443.415 449.265 441.378 450.153 439.818 451.93C438.302 453.707 437.543 456.437 437.543 460.12C437.543 463.76 438.323 466.468 439.883 468.245C441.487 470.022 443.502 470.91 445.928 470.91C446.925 470.91 448.03 470.78 449.243 470.52C450.5 470.217 451.388 469.805 451.908 469.285C451.995 469.198 452.168 469.155 452.428 469.155C452.688 469.155 453.165 469.653 453.858 470.65C454.595 471.603 455.267 472.882 455.873 474.485C456.48 476.045 456.783 477.258 456.783 478.125C456.783 479.815 455.483 481.158 452.883 482.155C450.283 483.152 447.207 483.65 443.653 483.65C437.933 483.65 433.232 481.635 429.548 477.605C425.865 473.575 424.023 467.898 424.023 460.575C424.023 453.208 425.908 447.423 429.678 443.22C433.492 439.017 438.237 436.915 443.913 436.915ZM535.209 483.13C531.439 483.13 529.402 482.523 529.099 481.31L526.954 472.925H516.619L514.734 480.985C514.474 482.328 512.394 483 508.494 483C506.414 483 504.875 482.892 503.879 482.675C502.882 482.415 502.384 482.22 502.384 482.09L513.889 438.085C513.889 437.738 516.857 437.565 522.794 437.565C528.73 437.565 531.699 437.738 531.699 438.085L542.944 482.155C542.944 482.458 541.947 482.697 539.954 482.87C537.96 483.043 536.379 483.13 535.209 483.13ZM518.244 464.67H525.069L522.144 451.215H521.754L518.244 464.67ZM595.807 483.13C591.863 483.13 589.892 482.697 589.892 481.83V439.71C589.892 438.237 590.563 437.5 591.907 437.5H603.347C609.76 437.5 614.375 438.822 617.192 441.465C620.052 444.108 621.482 447.943 621.482 452.97C621.482 457.13 620.138 460.943 617.452 464.41C616.108 466.143 614.137 467.53 611.537 468.57C608.937 469.61 605.903 470.13 602.437 470.13V481.765C602.437 482.285 601.613 482.653 599.967 482.87C598.363 483.043 596.977 483.13 595.807 483.13ZM602.437 448.81V459.08H603.282C604.798 459.08 606.077 458.603 607.117 457.65C608.157 456.697 608.677 455.353 608.677 453.62C608.677 451.887 608.308 450.652 607.572 449.915C606.878 449.178 605.622 448.81 603.802 448.81H602.437ZM691.247 455.57C692.07 455.57 692.482 457.087 692.482 460.12C692.482 461.03 692.374 462.113 692.157 463.37C691.984 464.583 691.637 465.19 691.117 465.19H682.862V471.69H694.822C695.559 471.69 696.057 472.643 696.317 474.55C696.447 475.373 696.512 476.262 696.512 477.215C696.512 478.125 696.382 479.317 696.122 480.79C695.862 482.263 695.429 483 694.822 483H672.592C670.945 483 670.122 482.328 670.122 480.985V439.19C670.122 438.063 670.62 437.5 671.617 437.5H694.887C695.797 437.5 696.252 439.428 696.252 443.285C696.252 447.098 695.797 449.005 694.887 449.005H682.862V455.57H691.247ZM757.493 482.09C757.493 482.783 755.434 483.13 751.318 483.13C747.158 483.13 745.078 482.805 745.078 482.155V439.775C745.078 438.258 745.879 437.5 747.483 437.5H759.898C771.294 437.5 776.993 441.942 776.993 450.825C776.993 453.512 776.473 455.96 775.433 458.17C774.393 460.337 772.919 462.07 771.013 463.37L779.203 477.02C778.856 478.06 777.729 479.252 775.823 480.595C773.223 482.458 771.078 483.39 769.388 483.39C767.698 483.39 766.441 482.783 765.618 481.57L759.508 467.335H757.493V482.09ZM757.493 449.005V458.755H757.818C761.934 458.755 763.993 457.043 763.993 453.62C763.993 452.06 763.581 450.912 762.758 450.175C761.978 449.395 760.678 449.005 758.858 449.005H757.493ZM828.007 467.14C828.831 467.79 830.239 468.678 832.232 469.805C834.269 470.932 836.197 471.495 838.017 471.495C839.881 471.495 840.812 470.78 840.812 469.35C840.812 468.7 840.552 468.137 840.032 467.66C839.512 467.14 838.559 466.555 837.172 465.905C835.786 465.255 834.746 464.757 834.052 464.41C833.359 464.02 832.427 463.413 831.257 462.59C830.131 461.723 829.264 460.835 828.657 459.925C826.924 457.455 826.057 454.313 826.057 450.5C826.057 446.687 827.466 443.48 830.282 440.88C833.142 438.237 836.869 436.915 841.462 436.915C844.582 436.915 847.464 437.262 850.107 437.955C852.751 438.605 854.116 439.472 854.202 440.555C854.202 440.685 854.202 440.815 854.202 440.945C854.202 442.462 853.726 444.39 852.772 446.73C851.819 449.027 851.147 450.305 850.757 450.565C847.984 449.135 845.492 448.42 843.282 448.42C841.116 448.42 840.032 449.2 840.032 450.76C840.032 451.713 840.834 452.558 842.437 453.295C842.784 453.468 843.282 453.707 843.932 454.01C844.582 454.313 845.319 454.682 846.142 455.115C847.009 455.505 847.919 456.025 848.872 456.675C849.869 457.282 850.931 458.105 852.057 459.145C854.354 461.312 855.502 464.172 855.502 467.725C855.502 472.362 854.224 476.153 851.667 479.1C849.111 482.047 845.167 483.563 839.837 483.65C837.237 483.65 834.876 483.433 832.752 483C830.672 482.567 828.852 481.722 827.292 480.465C825.732 479.208 824.952 477.692 824.952 475.915C824.952 474.138 825.277 472.383 825.927 470.65C826.577 468.873 827.271 467.703 828.007 467.14Z" fill="#00411F"/>
</g>
<defs>
<clipPath id="clip0_1_2">
<rect width="876.03" height="606.45" fill="white"/>
</clipPath>
</defs>
</svg>
