<svg width="877" height="607" viewBox="0 0 877 607" fill="none" xmlns="http://www.w3.org/2000/svg">
<g clip-path="url(#clip0_1_2)">
<path fill-rule="evenodd" clip-rule="evenodd" d="M9 491V507.741L223.995 522.373L439 537L653.995 522.373L869 507.741V491H9Z" fill="#00411F"/>
<path fill-rule="evenodd" clip-rule="evenodd" d="M441.63 312.35L438.02 338.48L434.41 312.35C433.39 314.94 432.18 317.38 430.78 319.77L430.35 320.48C430.39 318.22 430.53 315.94 430.76 313.64C428.51 318.01 426.97 322.34 426.01 326.62C424.32 328.67 422.45 330.59 420.37 332.4C417.59 322.2 415.61 311.37 414.92 299.53C411.55 304.43 410.42 309.46 410.71 314.59C407.9 305.77 402.6 298.2 394.44 292.1C402.79 308.98 405.88 325.52 405.4 341.81C404.12 342.41 402.78 342.99 401.39 343.56L389.76 303.77C388.34 318.68 388.9 333.12 392.35 346.86L391.21 347.23C384 335.22 379.58 321.01 380.96 302.24C373.05 320.47 371.63 336.8 376.53 351.28L375.88 351.44C370.85 341.77 366.93 330.93 365.6 317.37C359.27 328.69 355.32 339.78 356.15 350.42C355.64 338.14 350.88 326.44 342.14 315.26C345.48 327.65 346.77 339.87 344.33 351.8C335.02 338.11 331.71 321.33 333.44 301.94C327.16 312.56 322.26 323.49 329.42 337.06C326.02 334.31 322.04 332.1 317.1 330.78C317.23 331.92 317.3 333.07 317.3 334.25C317.3 334.41 317.3 334.56 317.3 334.72C324.03 342.31 328.99 350.6 331.43 359.88L330.04 360.1C326.96 353.93 322.82 348.7 318.29 344.1C317.34 347.98 319.32 351.15 317.7 356.12C316.53 353.89 315.52 351.59 314.65 349.24C309.96 359.54 299.59 366.69 287.53 366.69C282.07 366.69 276.95 365.22 272.55 362.66C272.28 363.91 271.98 365.15 271.66 366.38L270.43 366.4C270.38 364.63 270.28 362.86 270.13 361.09C266.33 358.35 263.2 354.73 261.03 350.53L260.89 366.22C259.42 366.14 257.99 366.03 256.61 365.9C251.73 350.45 250.2 333.64 253.62 314.82C247.47 323.23 244.45 332.14 244.14 341.46C243.03 336.47 240.59 332.02 236.04 328.39C238.65 340.22 239.67 351.47 239.72 362.35C238.1 361.76 236.56 361.1 235.08 360.38C231.56 349.63 225.78 339.46 216.81 330.1C219.39 336.63 221.4 343.2 222.82 349.8C222.66 350.12 222.5 350.45 222.34 350.77C221.75 350.12 221.18 349.44 220.63 348.74C220.67 348.33 220.7 347.92 220.74 347.51C220.6 347.79 220.46 348.07 220.32 348.34C216.02 342.79 212.72 335.75 210.01 326.14L214.93 361.74C213.53 363.33 212.01 364.84 210.35 366.27C207.57 356.07 205.59 345.24 204.9 333.4C201.54 338.3 200.4 343.33 200.69 348.46C197.88 339.64 192.58 332.07 184.42 325.97C192.77 342.85 195.86 359.39 195.38 375.68C194.1 376.28 192.76 376.86 191.37 377.43L179.74 337.64C178.32 352.55 178.88 366.99 182.33 380.73L181.19 381.1C173.98 369.09 169.56 354.88 170.94 336.12C163.03 354.35 161.61 370.68 166.51 385.16L165.86 385.32C160.82 375.65 156.91 364.81 155.58 351.25C149.25 362.57 145.3 373.66 146.13 384.3C145.62 372.02 140.86 360.32 132.12 349.14C135.46 361.53 136.75 373.75 134.31 385.68C125 371.99 121.69 355.21 123.42 335.82C117.14 346.44 112.24 357.37 119.4 370.93C115.04 367.4 109.73 364.76 102.67 363.75C111.74 372.64 118.44 382.46 121.4 393.73L120.01 393.95C116.93 387.78 112.79 382.55 108.26 377.95C107.31 381.83 109.29 385 107.67 389.97C102.11 379.33 100.03 367.23 99.88 354.33C94.53 367.78 93.14 380.48 95.98 392.37C93.9 381.93 87.12 372.57 78 363.74C80.38 377.05 79.59 388.59 77.42 399.37L76.72 399.43C77.43 384.11 71.65 369 59.21 354.13C65.58 371.58 65.22 386.51 61.61 400.23L60.38 400.25C59.94 386.07 56.58 372.13 51.21 358.36L50.85 400.07C49.38 399.99 47.95 399.88 46.57 399.75C41.69 384.3 40.16 367.49 43.59 348.67C37.44 357.08 34.42 365.99 34.11 375.31C33 370.32 30.56 365.87 26.01 362.24C28.62 374.07 29.64 385.32 29.69 396.2C28.07 395.61 26.53 394.95 25.06 394.23C21.54 383.48 15.76 373.31 6.78999 363.95C9.61999 371.11 11.76 378.32 13.2 385.57C7.44999 379.54 3.27999 371.66 -0.0100098 360L7.51999 414.48V415.04H868.41L876.02 360C872.73 371.66 868.56 379.54 862.81 385.57C864.25 378.32 866.39 371.11 869.22 363.95C860.25 373.31 854.47 383.48 850.95 394.23C849.48 394.95 847.94 395.61 846.32 396.2C846.37 385.32 847.39 374.07 850 362.24C845.45 365.87 843.01 370.32 841.9 375.31C841.59 365.98 838.57 357.08 832.42 348.67C835.84 367.48 834.32 384.3 829.44 399.75C828.06 399.88 826.63 399.99 825.16 400.07L824.8 358.36C819.43 372.13 816.07 386.07 815.63 400.25L814.4 400.23C810.79 386.51 810.43 371.57 816.8 354.13C804.36 369.01 798.59 384.11 799.29 399.43L798.59 399.37C796.42 388.59 795.64 377.05 798.01 363.74C788.9 372.57 782.11 381.94 780.03 392.37C782.87 380.47 781.48 367.77 776.13 354.33C775.98 367.23 773.91 379.33 768.34 389.97C766.73 385 768.7 381.83 767.75 377.95C763.23 382.55 759.08 387.78 756 393.95L754.61 393.73C757.57 382.45 764.27 372.63 773.34 363.75C766.28 364.77 760.97 367.4 756.61 370.93C763.78 357.37 758.87 346.44 752.59 335.81C754.32 355.2 751 371.98 741.7 385.67C739.26 373.74 740.54 361.51 743.89 349.13C735.15 360.31 730.38 372.01 729.88 384.29C730.71 373.65 726.76 362.56 720.43 351.24C719.1 364.8 715.18 375.65 710.15 385.31L709.5 385.15C714.4 370.67 712.98 354.34 705.07 336.11C706.45 354.87 702.03 369.08 694.82 381.09L693.68 380.72C697.13 366.98 697.69 352.54 696.27 337.63L684.64 377.42C683.25 376.85 681.92 376.27 680.63 375.67C680.15 359.38 683.24 342.85 691.59 325.96C683.43 332.07 678.13 339.63 675.32 348.45C675.61 343.33 674.47 338.3 671.11 333.39C670.42 345.23 668.45 356.06 665.66 366.26C664 364.82 662.48 363.31 661.08 361.73L666 326.14C663.29 335.74 659.99 342.79 655.69 348.34C655.55 348.06 655.41 347.78 655.27 347.51C655.31 347.92 655.35 348.33 655.38 348.74C654.83 349.44 654.26 350.12 653.67 350.77C653.51 350.45 653.34 350.13 653.19 349.8C654.61 343.19 656.62 336.63 659.2 330.1C650.23 339.46 644.45 349.63 640.93 360.38C639.46 361.1 637.92 361.76 636.29 362.35C636.34 351.47 637.36 340.22 639.97 328.39C635.42 332.02 632.98 336.47 631.87 341.46C631.56 332.13 628.54 323.23 622.39 314.82C625.81 333.63 624.28 350.45 619.41 365.9C618.03 366.03 616.6 366.14 615.13 366.22L614.98 348.9C612.97 353.47 609.85 357.43 605.95 360.46C605.78 362.44 605.66 364.42 605.6 366.4L604.37 366.38C604.01 365.01 603.68 363.63 603.39 362.24C598.84 365.06 593.47 366.7 587.71 366.7C576.02 366.7 565.91 359.97 561.03 350.17C560.24 352.2 559.34 354.19 558.33 356.13C556.72 351.16 558.69 347.99 557.74 344.11C553.22 348.71 549.07 353.94 545.99 360.11L544.6 359.89C546.94 350.97 551.62 342.97 557.96 335.61V335.59C557.94 335.15 557.93 334.71 557.93 334.26C557.93 333.17 557.99 332.09 558.11 331.02C553.54 332.36 549.82 334.48 546.61 337.08C553.78 323.52 548.87 312.59 542.59 301.96C544.32 321.35 541 338.13 531.7 351.82C529.26 339.89 530.54 327.66 533.89 315.28C525.15 326.46 520.38 338.16 519.88 350.44C520.71 339.8 516.76 328.71 510.43 317.39C509.1 330.95 505.18 341.8 500.15 351.46L499.5 351.3C504.4 336.82 502.98 320.49 495.07 302.26C496.45 321.02 492.03 335.23 484.82 347.25L483.68 346.88C487.13 333.14 487.69 318.7 486.27 303.79L474.64 343.58C473.25 343.01 471.92 342.43 470.63 341.83C470.15 325.55 473.24 309.01 481.59 292.12C473.43 298.23 468.13 305.79 465.32 314.61C465.61 309.49 464.47 304.46 461.11 299.55C460.42 311.39 458.45 322.22 455.66 332.42C453.57 330.61 451.71 328.69 450.02 326.64C449.06 322.35 447.52 318.03 445.27 313.66C445.5 315.96 445.64 318.25 445.68 320.5L445.25 319.79C443.84 317.41 442.63 314.97 441.62 312.37L441.63 312.35Z" fill="#00411F"/>
<path fill-rule="evenodd" clip-rule="evenodd" d="M622.195 277.541V293.974L617.743 297.227C632.805 303.875 643 316.567 643 331.159C643 352.609 620.949 370 593.763 370C573.055 370 555.329 359.905 548.064 345.616L547.808 347.028L316.486 350.727C307.942 362.259 292.091 370 273.95 370C246.764 370 224.724 352.609 224.724 331.159C224.724 314.13 238.615 299.656 257.96 294.411L257.204 293.637L256.767 257.696L101.483 116.335L91.0649 116.68L35 72.5768L50.8192 50L112.317 96.1454L114.053 105.383L261.539 228.933L268.037 224.142L293.199 224.831L293.636 245.365L314.025 245.021L312.288 274.801L373.019 274.456L372.902 263.765L359.022 253.67H371.283L356.54 245.029L355.666 205.667L380.391 205.322L380.828 197.959L404.466 197.447L403.816 190.428H430.054V198.817L449.356 198.472L449.132 204.112L474.294 204.625L478.31 209.164L531.989 226.874L531.872 248.955L515.275 248.358L514.955 253.998L522.433 261.697L534.034 262.042L538.263 256.141L568.623 255.712L570.136 277.272L580.767 286.51L596.927 286.77L596.714 277.533H622.185L622.195 277.541ZM594.126 323.014C588.576 323.014 584.08 326.561 584.08 330.94C584.08 335.32 588.576 338.858 594.126 338.858C599.676 338.858 604.16 335.311 604.16 330.94C604.16 326.57 599.665 323.014 594.126 323.014ZM273.673 323.014C268.133 323.014 263.638 326.561 263.638 330.94C263.638 335.32 268.133 338.858 273.673 338.858C279.212 338.858 283.707 335.311 283.707 330.94C283.707 326.57 279.223 323.014 273.673 323.014ZM273.939 306.119C256.415 306.119 242.215 317.324 242.215 331.15C242.215 344.977 256.415 356.182 273.939 356.182C291.463 356.182 305.663 344.977 305.663 331.15C305.663 317.324 291.463 306.119 273.939 306.119ZM593.753 306.119C576.24 306.119 562.029 317.324 562.029 331.15C562.029 344.977 576.24 356.182 593.753 356.182C611.266 356.182 625.476 344.977 625.476 331.15C625.476 317.324 611.276 306.119 593.753 306.119Z" fill="#00411F"/>
<path d="M23.82 430.5H46.635V472.1H71.335V476H23.82V430.5ZM115.811 430.5H134.791L154.941 476H130.371L123.546 460.92H109.246L103.396 476H98.6512L115.811 430.5ZM121.726 456.955L115.811 443.76L110.676 456.955H121.726ZM182.209 430.5H201.319L220.299 453.25V430.5H224.199V476H208.924L186.174 445.71V476H182.209V430.5ZM252.549 430.5H286.739C292.936 430.5 298.287 432.71 302.794 437.13C307.257 441.593 309.489 446.945 309.489 453.185C309.489 459.512 307.257 464.907 302.794 469.37C298.331 473.79 292.979 476 286.739 476H252.549V430.5ZM279.199 472.23C281.669 472.23 283.446 471.428 284.529 469.825C285.569 468.265 286.219 466.055 286.479 463.195C286.696 461.332 286.804 457.995 286.804 453.185C286.804 449.458 286.674 445.905 286.414 442.525C286.154 439.968 285.504 438.018 284.464 436.675C283.381 435.072 281.626 434.27 279.199 434.27H275.299V472.23H279.199ZM371.681 446.815C376.838 448.202 380.695 450.043 383.251 452.34C385.808 454.593 387.086 457.54 387.086 461.18C387.086 464.083 386.176 466.683 384.356 468.98C382.536 471.277 379.85 473.075 376.296 474.375C372.786 475.675 368.518 476.325 363.491 476.325C357.555 476.325 352.311 475.567 347.761 474.05C343.255 472.49 339.723 470.605 337.166 468.395L339.311 465.47C341.565 467.247 344.403 468.763 347.826 470.02C351.25 471.277 354.933 471.905 358.876 471.905C361.433 471.905 363.361 471.537 364.661 470.8C366.005 470.063 366.676 469.023 366.676 467.68C366.676 465.34 364.358 463.52 359.721 462.22L351.271 459.75C346.678 458.363 343.125 456.435 340.611 453.965C338.141 451.495 336.906 448.57 336.906 445.19C336.906 442.373 337.795 439.817 339.571 437.52C341.348 435.223 343.926 433.425 347.306 432.125C350.73 430.782 354.825 430.11 359.591 430.11C364.141 430.11 368.323 430.63 372.136 431.67C375.993 432.71 379.135 433.967 381.561 435.44L379.416 438.43C377.38 437.26 374.931 436.263 372.071 435.44C369.255 434.617 366.286 434.205 363.166 434.205C360.436 434.205 358.335 434.638 356.861 435.505C355.431 436.328 354.716 437.477 354.716 438.95C354.716 440.077 355.258 441.073 356.341 441.94C357.425 442.763 359.483 443.587 362.516 444.41L371.681 446.815ZM447.965 471.775C451.215 471.775 453.793 470.453 455.7 467.81C457.606 465.167 458.841 461.96 459.405 458.19H463.435C462.828 462.87 461.29 466.857 458.82 470.15C457.433 471.97 455.851 473.335 454.075 474.245C452.341 475.112 450.413 475.675 448.29 475.935C446.21 476.195 443.48 476.325 440.1 476.325C435.333 476.325 431.455 475.87 428.465 474.96C425.518 474.007 422.983 472.468 420.86 470.345C416.7 466.185 414.62 460.465 414.62 453.185C414.62 445.515 416.483 439.817 420.21 436.09C422.636 433.663 425.345 432.06 428.335 431.28C431.325 430.5 435.246 430.11 440.1 430.11C444.563 430.11 448.181 430.435 450.955 431.085C453.771 431.692 456.068 433.013 457.845 435.05C459.318 436.74 460.466 438.777 461.29 441.16C462.113 443.543 462.59 445.905 462.72 448.245H459.015C458.841 446.295 458.365 444.302 457.585 442.265C456.848 440.185 455.678 438.408 454.075 436.935C452.471 435.418 450.435 434.66 447.965 434.66C445.625 434.66 443.74 435.678 442.31 437.715C441.053 439.318 440.1 441.68 439.45 444.8C438.973 447.183 438.735 449.978 438.735 453.185C438.735 458.255 439.341 462.35 440.555 465.47C442.115 469.673 444.585 471.775 447.965 471.775ZM503.183 430.5H522.163L542.313 476H517.743L510.918 460.92H496.618L490.768 476H486.023L503.183 430.5ZM509.098 456.955L503.183 443.76L498.048 456.955H509.098ZM569.581 430.5H610.856C614.67 430.5 617.746 431.605 620.086 433.815C622.426 435.982 623.596 438.928 623.596 442.655C623.596 444.865 623.055 446.923 621.971 448.83C620.888 450.737 619.393 452.253 617.486 453.38C615.58 454.507 613.413 455.07 610.986 455.07L591.161 455.135V476H569.581V430.5ZM593.436 451.365C594.996 451.365 596.426 450.997 597.726 450.26C599.07 449.48 600.11 448.44 600.846 447.14C601.626 445.797 602.016 444.367 602.016 442.85C602.016 441.29 601.626 439.86 600.846 438.56C600.11 437.217 599.07 436.155 597.726 435.375C596.426 434.595 594.996 434.205 593.436 434.205H591.161V451.365H593.436ZM651.474 430.5H698.729V434.335H674.354V451.17H686.314V455.07H674.354V472.1H698.729V476H651.474V430.5ZM727.145 430.5H770.63C772.754 430.5 774.704 431.042 776.48 432.125C778.3 433.165 779.73 434.595 780.77 436.415C781.854 438.192 782.395 440.142 782.395 442.265C782.395 445.082 781.529 447.638 779.795 449.935C778.062 452.232 775.874 453.705 773.23 454.355C775.57 455.005 777.477 456.24 778.95 458.06C780.467 459.88 781.225 461.938 781.225 464.235V476H759.45V461.895C759.45 460.508 759.19 459.425 758.67 458.645C758.064 457.735 757.37 457.063 756.59 456.63C755.724 456.153 754.749 455.807 753.665 455.59C752.539 455.373 751.477 455.243 750.48 455.2L748.725 455.135V476H727.145V430.5ZM751 451.365C752.56 451.365 753.99 450.997 755.29 450.26C756.634 449.48 757.674 448.44 758.41 447.14C759.19 445.797 759.58 444.367 759.58 442.85C759.58 441.29 759.19 439.86 758.41 438.56C757.674 437.217 756.634 436.155 755.29 435.375C753.99 434.595 752.56 434.205 751 434.205H748.725V451.43L751 451.365ZM845.135 446.815C850.292 448.202 854.148 450.043 856.705 452.34C859.262 454.593 860.54 457.54 860.54 461.18C860.54 464.083 859.63 466.683 857.81 468.98C855.99 471.277 853.303 473.075 849.75 474.375C846.24 475.675 841.972 476.325 836.945 476.325C831.008 476.325 825.765 475.567 821.215 474.05C816.708 472.49 813.177 470.605 810.62 468.395L812.765 465.47C815.018 467.247 817.857 468.763 821.28 470.02C824.703 471.277 828.387 471.905 832.33 471.905C834.887 471.905 836.815 471.537 838.115 470.8C839.458 470.063 840.13 469.023 840.13 467.68C840.13 465.34 837.812 463.52 833.175 462.22L824.725 459.75C820.132 458.363 816.578 456.435 814.065 453.965C811.595 451.495 810.36 448.57 810.36 445.19C810.36 442.373 811.248 439.817 813.025 437.52C814.802 435.223 817.38 433.425 820.76 432.125C824.183 430.782 828.278 430.11 833.045 430.11C837.595 430.11 841.777 430.63 845.59 431.67C849.447 432.71 852.588 433.967 855.015 435.44L852.87 438.43C850.833 437.26 848.385 436.263 845.525 435.44C842.708 434.617 839.74 434.205 836.62 434.205C833.89 434.205 831.788 434.638 830.315 435.505C828.885 436.328 828.17 437.477 828.17 438.95C828.17 440.077 828.712 441.073 829.795 441.94C830.878 442.763 832.937 443.587 835.97 444.41L845.135 446.815Z" fill="#00411F"/>
</g>
<defs>
<clipPath id="clip0_1_2">
<rect width="876.03" height="606.45" fill="white"/>
</clipPath>
</defs>
</svg>
